<svg xmlns="http://www.w3.org/2000/svg" xmlns:xlink="http://www.w3.org/1999/xlink" width="3000" zoomAndPan="magnify" viewBox="0 0 2250 2250.000011" height="3000" preserveAspectRatio="xMidYMid meet" version="1.0"><defs><clipPath id="b7fccd66fd"><path d="M 386 939 L 1864.121094 939 L 1864.121094 2047.5625 L 386 2047.5625 Z M 386 939 " clip-rule="nonzero"/></clipPath><clipPath id="4d05d1ed5e"><path d="M 386 201.132812 L 1864.121094 201.132812 L 1864.121094 1310 L 386 1310 Z M 386 201.132812 " clip-rule="nonzero"/></clipPath></defs><g clip-path="url(#b7fccd66fd)"><path fill="#18181b" d="M 1310.058594 939.882812 L 386 939.882812 L 755.371094 1309.253906 L 1310.058594 1309.253906 C 1392.050781 1309.253906 1461.523438 1362.699219 1485.640625 1436.640625 C 1495.886719 1410.132812 1501.535156 1381.324219 1501.535156 1351.210938 C 1501.535156 1330.988281 1498.984375 1311.371094 1494.226562 1292.640625 C 1527.21875 1333.355469 1546.996094 1385.207031 1546.996094 1441.699219 C 1546.996094 1572.550781 1440.910156 1678.621094 1310.058594 1678.621094 L 386 1678.621094 L 755.371094 2048.003906 L 1310.058594 2048.003906 C 1616.0625 2048.003906 1864.121094 1799.945312 1864.121094 1493.945312 C 1864.121094 1187.941406 1616.0625 939.882812 1310.058594 939.882812 " fill-opacity="1" fill-rule="nonzero"/></g><g clip-path="url(#4d05d1ed5e)"><path fill="#18181b" d="M 1310.058594 201.144531 L 386 201.144531 L 755.371094 570.515625 L 1310.058594 570.515625 C 1392.050781 570.515625 1461.523438 623.960938 1485.640625 697.902344 C 1495.886719 671.394531 1501.535156 642.585938 1501.535156 612.472656 C 1501.535156 592.25 1498.984375 572.632812 1494.226562 553.902344 C 1527.21875 594.617188 1546.996094 646.46875 1546.996094 702.949219 C 1546.996094 833.800781 1440.910156 939.882812 1310.058594 939.882812 L 386 939.882812 L 755.371094 1309.253906 L 1310.058594 1309.253906 C 1616.0625 1309.253906 1864.121094 1061.195312 1864.121094 755.207031 C 1864.121094 449.203125 1616.0625 201.144531 1310.058594 201.144531 " fill-opacity="1" fill-rule="nonzero"/></g></svg>