<svg width="141" height="178" viewBox="0 0 141 178" fill="none" xmlns="http://www.w3.org/2000/svg">
<path d="M134.937 74.6525C138.078 67.8907 135.143 59.8626 128.382 56.7213L114.527 50.2851C110.02 48.1909 104.668 50.1475 102.573 54.6554L60.7488 144.684C56.3537 154.145 60.4601 165.377 69.9207 169.772C79.3813 174.167 90.6135 170.061 95.0086 160.6L134.937 74.6525Z" fill="#F2F2F2"/>
<path fill-rule="evenodd" clip-rule="evenodd" d="M59.1537 150.127C58.0788 158.111 62.2311 166.2 69.9207 169.772C76.6449 172.896 84.264 171.725 89.6871 167.39C75.6668 163.682 67.4321 158.74 59.1537 150.127Z" fill="#D9D9D9"/>
<path fill-rule="evenodd" clip-rule="evenodd" d="M79.0369 105.319C103.934 106.815 129.759 93.4649 135.117 63.68C133.856 60.7137 131.535 58.1862 128.382 56.7213L114.527 50.2851C110.02 48.1908 104.668 50.1475 102.573 54.6554L79.0369 105.319Z" fill="#D3D3D3"/>
<path d="M138.375 44.2521C136.125 -6.37298 80.4375 -13.123 41.0625 21.752V78.0021C68.0625 111.752 138.375 103.315 138.375 44.2521Z" fill="#F2F2F2"/>
<path fill-rule="evenodd" clip-rule="evenodd" d="M45.5624 18.0003C44.0418 19.1921 42.5406 20.4427 41.0624 21.752V78.0021C64.0739 106.766 118.547 104.887 134.138 67.1394C117.081 85.3717 70.9959 102.825 45.5624 74.627V18.0003Z" fill="#ECECEC"/>
<path d="M119.25 41.4395C119.25 35.8476 114.717 31.3145 109.125 31.3145H77.625C72.0331 31.3145 67.5 35.8476 67.5 41.4395C67.5 47.0314 72.0331 51.5645 77.625 51.5645H109.125C114.717 51.5645 119.25 47.0314 119.25 41.4395Z" fill="#494949"/>
<path fill-rule="evenodd" clip-rule="evenodd" d="M93.1121 35.8145L93.3942 36.5758L92.8751 37.9769L92.356 36.5758L92.6381 35.8145H90.8934L91.1755 36.5758L90.6564 37.9769L90.1373 36.5758L90.4194 35.8145H89.4375C89.1849 35.8145 88.9359 35.8296 88.6912 35.8591L88.9568 36.5758L88.4377 37.9769L87.9186 36.5758L88.1511 35.9484C87.6389 36.0567 87.1501 36.2284 86.6932 36.4548L86.7381 36.5758L86.219 37.9769L85.8439 36.9644C84.2736 38.0866 83.25 39.9248 83.25 42.002C83.25 43.5639 83.8287 44.9907 84.7835 46.0795L84.5906 45.5588L85.1096 44.1578L85.6287 45.5588L85.2566 46.5633C85.5406 46.8238 85.8491 47.0581 86.1781 47.2624L86.219 47.1521L86.2836 47.3265C86.8408 47.6573 87.4544 47.9031 88.1065 48.046L88.4377 47.1521L88.8104 48.1581C89.0166 48.1789 89.2258 48.1895 89.4375 48.1895H90.2721L90.6564 47.1521L91.0407 48.1895H92.4908L92.8751 47.1521L93.2594 48.1895H94.7095L95.0938 47.1521L95.4781 48.1895H96.9282L97.3125 47.1521L97.6969 48.1895H99.1469L99.5312 47.1521L99.9156 48.1895H101.366L101.75 47.1521L102.134 48.1895H103.584L103.969 47.1521L104.353 48.1895H105.803L106.187 47.1521L106.572 48.1895H108.022L108.406 47.1521L108.79 48.1895H109.687C109.877 48.1895 110.065 48.181 110.25 48.1643L110.625 47.1521L110.961 48.0584C111.603 47.924 112.209 47.6899 112.762 47.3731L112.843 47.1521L112.896 47.2937C113.226 47.0932 113.536 46.8626 113.822 46.6058L113.434 45.5588L113.953 44.1578L114.472 45.5588L114.235 46.1978C115.253 45.095 115.875 43.6211 115.875 42.002C115.875 39.903 114.83 38.0481 113.232 36.9294L112.843 37.9769L112.324 36.5758L112.379 36.4289C111.917 36.2055 111.423 36.0378 110.906 35.9345L111.144 36.5758L110.625 37.9769L110.106 36.5758L110.374 35.8521C110.148 35.8273 109.919 35.8145 109.688 35.8145H108.643L108.925 36.5758L108.406 37.9769L107.887 36.5758L108.169 35.8145H106.424L106.706 36.5758L106.187 37.9769L105.668 36.5758L105.95 35.8145H104.206L104.488 36.5758L103.969 37.9769L103.45 36.5758L103.732 35.8145H101.987L102.269 36.5758L101.75 37.9769L101.231 36.5758L101.513 35.8145H99.7682L100.05 36.5758L99.5312 37.9769L99.0121 36.5758L99.2942 35.8145H97.5495L97.8316 36.5758L97.3125 37.9769L96.7934 36.5758L97.0755 35.8145H95.3308L95.6129 36.5758L95.0938 37.9769L94.5747 36.5758L94.8568 35.8145H93.1121ZM93.9845 38.1691L94.5035 39.5702L93.9845 40.9713L93.4654 39.5702L93.9845 38.1691ZM96.2032 38.1691L95.6841 39.5702L96.2032 40.9713L96.7222 39.5702L96.2032 38.1691ZM95.0938 41.1634L95.6129 42.5645L95.0938 43.9656L94.5747 42.5645L95.0938 41.1634ZM97.3125 41.1634L96.7934 42.5645L97.3125 43.9656L97.8316 42.5645L97.3125 41.1634ZM96.2032 44.1578L96.7222 45.5588L96.2032 46.9599L95.6841 45.5588L96.2032 44.1578ZM98.4219 44.1578L97.9028 45.5588L98.4219 46.9599L98.9409 45.5588L98.4219 44.1578ZM98.4219 40.9712L97.9028 39.5702L98.4219 38.1691L98.9409 39.5702L98.4219 40.9712ZM99.5312 41.1634L99.0121 42.5645L99.5312 43.9656L100.05 42.5645L99.5312 41.1634ZM100.641 38.1691L100.121 39.5702L100.641 40.9712L101.16 39.5702L100.641 38.1691ZM91.7657 38.1691L92.2848 39.5702L91.7657 40.9713L91.2467 39.5702L91.7657 38.1691ZM92.8751 41.1634L93.3942 42.5645L92.8751 43.9656L92.356 42.5645L92.8751 41.1634ZM93.9845 44.1578L94.5035 45.5588L93.9845 46.9599L93.4654 45.5588L93.9845 44.1578ZM100.641 44.1578L100.121 45.5588L100.641 46.9599L101.16 45.5588L100.641 44.1578ZM101.75 41.1634L101.231 42.5645L101.75 43.9656L102.269 42.5645L101.75 41.1634ZM102.859 38.1691L102.34 39.5702L102.859 40.9712L103.378 39.5702L102.859 38.1691ZM90.6564 41.1634L91.1755 42.5645L90.6564 43.9656L90.1373 42.5645L90.6564 41.1634ZM91.7657 44.1578L92.2848 45.5588L91.7657 46.9599L91.2467 45.5588L91.7657 44.1578ZM89.547 38.1691L90.0661 39.5702L89.547 40.9713L89.028 39.5702L89.547 38.1691ZM102.859 44.1578L102.34 45.5588L102.859 46.9599L103.378 45.5588L102.859 44.1578ZM103.969 41.1634L103.45 42.5645L103.969 43.9656L104.488 42.5645L103.969 41.1634ZM104.559 39.5702L105.078 38.1691L105.597 39.5702L105.078 40.9712L104.559 39.5702ZM89.547 44.1578L90.0661 45.5588L89.547 46.9599L89.028 45.5588L89.547 44.1578ZM88.4377 41.1634L88.9568 42.5645L88.4377 43.9656L87.9186 42.5645L88.4377 41.1634ZM87.3283 40.9713L87.8474 39.5702L87.3283 38.1691L86.8093 39.5702L87.3283 40.9713ZM105.078 44.1578L104.559 45.5588L105.078 46.9599L105.597 45.5588L105.078 44.1578ZM105.668 42.5645L106.187 41.1634L106.706 42.5645L106.187 43.9656L105.668 42.5645ZM106.778 39.5702L107.297 38.1691L107.816 39.5702L107.297 40.9712L106.778 39.5702ZM115.062 43.9656L115.581 42.5645L115.062 41.1634L114.543 42.5645L115.062 43.9656ZM113.953 40.9712L114.472 39.5702L113.953 38.1691L113.434 39.5702L113.953 40.9712ZM87.3283 46.9599L87.8474 45.5588L87.3283 44.1578L86.8093 45.5588L87.3283 46.9599ZM85.6287 39.5702L85.1096 38.1691L84.5906 39.5702L85.1096 40.9713L85.6287 39.5702ZM85.6999 42.5645L86.219 41.1634L86.7381 42.5645L86.219 43.9656L85.6999 42.5645ZM106.778 45.5588L107.297 44.1578L107.816 45.5588L107.297 46.9599L106.778 45.5588ZM109.515 38.1691L110.034 39.5702L109.515 40.9712L108.996 39.5702L109.515 38.1691ZM108.406 41.1634L108.925 42.5645L108.406 43.9656L107.887 42.5645L108.406 41.1634ZM112.253 39.5702L111.734 38.1691L111.215 39.5702L111.734 40.9712L112.253 39.5702ZM112.324 42.5645L112.843 41.1634L113.363 42.5645L112.843 43.9656L112.324 42.5645ZM83.4812 42.5645L84.0003 41.1634L84.5194 42.5645L84.0003 43.9656L83.4812 42.5645ZM108.996 45.5588L109.515 44.1578L110.034 45.5588L109.515 46.9599L108.996 45.5588ZM110.625 41.1634L111.144 42.5645L110.625 43.9656L110.106 42.5645L110.625 41.1634ZM111.734 44.1578L112.253 45.5588L111.734 46.9599L111.215 45.5588L111.734 44.1578Z" fill="#2C2C2C"/>
<path d="M0.743752 26.6453C15.3269 13.0534 24.4338 10.5928 41.7573 14.8942C42.0072 14.9563 42.1875 15.1825 42.1875 15.44V84.8973C42.1875 85.1451 42.0202 85.3653 41.7829 85.4366C23.7646 90.845 14.3227 89.8873 0.690258 73.0972C0.6091 72.9972 0.5625 72.8693 0.5625 72.7405V27.0586C0.5625 26.9029 0.629856 26.7514 0.743752 26.6453Z" fill="#F5F5F5"/>
<path fill-rule="evenodd" clip-rule="evenodd" d="M0.5625 68.2519C12.9101 81.2928 23.0559 84.034 42.1875 79.7854V84.8973C42.1875 85.1451 42.0202 85.3654 41.7829 85.4366C23.7646 90.845 14.3227 89.8873 0.690258 73.0972C0.6091 72.9972 0.5625 72.8693 0.5625 72.7405V68.2519Z" fill="#ECECEC"/>
</svg>
