<svg width="141" height="178" viewBox="0 0 141 178" fill="none" xmlns="http://www.w3.org/2000/svg">
<path d="M5.68784 74.6525C2.54654 67.8907 5.48152 59.8626 12.2433 56.7213L26.0976 50.2851C30.6054 48.1909 35.9575 50.1475 38.0517 54.6554L79.8762 144.684C84.2713 154.145 80.1649 165.377 70.7043 169.772C61.2437 174.167 50.0115 170.061 45.6164 160.6L5.68784 74.6525Z" fill="#F2F2F2"/>
<path fill-rule="evenodd" clip-rule="evenodd" d="M81.4713 150.127C82.5462 158.111 78.3939 166.2 70.7043 169.772C63.9801 172.896 56.361 171.725 50.9379 167.39C64.9582 163.682 73.1929 158.74 81.4713 150.127Z" fill="#D9D9D9"/>
<path fill-rule="evenodd" clip-rule="evenodd" d="M61.5881 105.319C36.6905 106.815 10.8662 93.4649 5.5083 63.68C6.76903 60.7137 9.09005 58.1862 12.2433 56.7213L26.0975 50.2851C30.6054 48.1908 35.9574 50.1475 38.0516 54.6554L61.5881 105.319Z" fill="#D3D3D3"/>
<path d="M2.25 44.2521C4.5 -6.37298 60.1875 -13.123 99.5625 21.752V78.0021C72.5625 111.752 2.25 103.315 2.25 44.2521Z" fill="#F2F2F2"/>
<path fill-rule="evenodd" clip-rule="evenodd" d="M95.0625 18.0003C96.583 19.1921 98.0843 20.4427 99.5625 21.752V78.0021C76.551 106.766 22.0781 104.887 6.48669 67.1394C23.5436 85.3717 69.629 102.825 95.0625 74.627V18.0003Z" fill="#ECECEC"/>
<path d="M21.375 41.4395C21.375 35.8476 25.9081 31.3145 31.5 31.3145H63C68.5919 31.3145 73.125 35.8476 73.125 41.4395C73.125 47.0314 68.5919 51.5645 63 51.5645H31.5C25.9081 51.5645 21.375 47.0314 21.375 41.4395Z" fill="#494949"/>
<path fill-rule="evenodd" clip-rule="evenodd" d="M47.5129 35.8145L47.2308 36.5758L47.7499 37.9769L48.269 36.5758L47.9869 35.8145H49.7316L49.4495 36.5758L49.9686 37.9769L50.4877 36.5758L50.2056 35.8145H51.1875C51.4401 35.8145 51.6891 35.8296 51.9338 35.8591L51.6682 36.5758L52.1873 37.9769L52.7064 36.5758L52.4739 35.9484C52.9861 36.0567 53.4749 36.2284 53.9318 36.4548L53.8869 36.5758L54.406 37.9769L54.7811 36.9644C56.3514 38.0866 57.375 39.9248 57.375 42.002C57.375 43.5639 56.7963 44.9907 55.8415 46.0795L56.0344 45.5588L55.5154 44.1578L54.9963 45.5588L55.3684 46.5633C55.0844 46.8238 54.7759 47.0581 54.4469 47.2624L54.406 47.1521L54.3414 47.3265C53.7842 47.6573 53.1706 47.9031 52.5185 48.046L52.1873 47.1521L51.8146 48.1581C51.6084 48.1789 51.3992 48.1895 51.1875 48.1895H50.3529L49.9686 47.1521L49.5843 48.1895H48.1342L47.7499 47.1521L47.3656 48.1895H45.9155L45.5312 47.1521L45.1469 48.1895H43.6968L43.3125 47.1521L42.9281 48.1895H41.4781L41.0938 47.1521L40.7094 48.1895H39.2594L38.8751 47.1521L38.4907 48.1895H37.0407L36.6564 47.1521L36.272 48.1895H34.822L34.4377 47.1521L34.0533 48.1895H32.6033L32.219 47.1521L31.8346 48.1895H30.9375C30.748 48.1895 30.5605 48.181 30.3753 48.1643L30.0003 47.1521L29.6645 48.0584C29.0219 47.924 28.4159 47.6899 27.8634 47.3731L27.7816 47.1521L27.7291 47.2937C27.399 47.0932 27.0892 46.8626 26.8034 46.6058L27.1913 45.5588L26.6722 44.1578L26.1531 45.5588L26.3898 46.1978C25.3719 45.095 24.75 43.6211 24.75 42.002C24.75 39.903 25.7952 38.0481 27.3935 36.9294L27.7816 37.9769L28.3006 36.5758L28.2462 36.4289C28.708 36.2055 29.2018 36.0378 29.7188 35.9345L29.4812 36.5758L30.0003 37.9769L30.5193 36.5758L30.2512 35.8521C30.4766 35.8273 30.7055 35.8145 30.9375 35.8145H31.9819L31.6999 36.5758L32.219 37.9769L32.738 36.5758L32.456 35.8145H34.2006L33.9186 36.5758L34.4377 37.9769L34.9568 36.5758L34.6747 35.8145H36.4194L36.1373 36.5758L36.6564 37.9769L37.1755 36.5758L36.8934 35.8145H38.6381L38.356 36.5758L38.8751 37.9769L39.3942 36.5758L39.1121 35.8145H40.8568L40.5747 36.5758L41.0938 37.9769L41.6129 36.5758L41.3308 35.8145H43.0755L42.7934 36.5758L43.3125 37.9769L43.8316 36.5758L43.5495 35.8145H45.2942L45.0121 36.5758L45.5312 37.9769L46.0503 36.5758L45.7682 35.8145H47.5129ZM46.6405 38.1691L46.1215 39.5702L46.6405 40.9713L47.1596 39.5702L46.6405 38.1691ZM44.4218 38.1691L44.9409 39.5702L44.4218 40.9713L43.9028 39.5702L44.4218 38.1691ZM45.5312 41.1634L45.0121 42.5645L45.5312 43.9656L46.0503 42.5645L45.5312 41.1634ZM43.3125 41.1634L43.8316 42.5645L43.3125 43.9656L42.7934 42.5645L43.3125 41.1634ZM44.4218 44.1578L43.9028 45.5588L44.4218 46.9599L44.9409 45.5588L44.4218 44.1578ZM42.2031 44.1578L42.7222 45.5588L42.2031 46.9599L41.6841 45.5588L42.2031 44.1578ZM42.2031 40.9712L42.7222 39.5702L42.2031 38.1691L41.6841 39.5702L42.2031 40.9712ZM41.0938 41.1634L41.6129 42.5645L41.0938 43.9656L40.5747 42.5645L41.0938 41.1634ZM39.9844 38.1691L40.5035 39.5702L39.9844 40.9712L39.4654 39.5702L39.9844 38.1691ZM48.8593 38.1691L48.3402 39.5702L48.8593 40.9713L49.3783 39.5702L48.8593 38.1691ZM47.7499 41.1634L47.2308 42.5645L47.7499 43.9656L48.269 42.5645L47.7499 41.1634ZM46.6405 44.1578L46.1215 45.5588L46.6405 46.9599L47.1596 45.5588L46.6405 44.1578ZM39.9844 44.1578L40.5035 45.5588L39.9844 46.9599L39.4654 45.5588L39.9844 44.1578ZM38.8751 41.1634L39.3942 42.5645L38.8751 43.9656L38.356 42.5645L38.8751 41.1634ZM37.7657 38.1691L38.2848 39.5702L37.7657 40.9712L37.2467 39.5702L37.7657 38.1691ZM49.9686 41.1634L49.4495 42.5645L49.9686 43.9656L50.4877 42.5645L49.9686 41.1634ZM48.8593 44.1578L48.3402 45.5588L48.8593 46.9599L49.3783 45.5588L48.8593 44.1578ZM51.078 38.1691L50.5589 39.5702L51.078 40.9713L51.597 39.5702L51.078 38.1691ZM37.7657 44.1578L38.2848 45.5588L37.7657 46.9599L37.2467 45.5588L37.7657 44.1578ZM36.6564 41.1634L37.1755 42.5645L36.6564 43.9656L36.1373 42.5645L36.6564 41.1634ZM36.0661 39.5702L35.547 38.1691L35.0279 39.5702L35.547 40.9712L36.0661 39.5702ZM51.078 44.1578L50.5589 45.5588L51.078 46.9599L51.597 45.5588L51.078 44.1578ZM52.1873 41.1634L51.6682 42.5645L52.1873 43.9656L52.7064 42.5645L52.1873 41.1634ZM53.2967 40.9713L52.7776 39.5702L53.2967 38.1691L53.8157 39.5702L53.2967 40.9713ZM35.547 44.1578L36.0661 45.5588L35.547 46.9599L35.0279 45.5588L35.547 44.1578ZM34.9568 42.5645L34.4377 41.1634L33.9186 42.5645L34.4377 43.9656L34.9568 42.5645ZM33.8474 39.5702L33.3283 38.1691L32.8092 39.5702L33.3283 40.9712L33.8474 39.5702ZM25.5629 43.9656L25.0438 42.5645L25.5629 41.1634L26.0819 42.5645L25.5629 43.9656ZM26.6722 40.9712L26.1531 39.5702L26.6722 38.1691L27.1913 39.5702L26.6722 40.9712ZM53.2967 46.9599L52.7776 45.5588L53.2967 44.1578L53.8157 45.5588L53.2967 46.9599ZM54.9963 39.5702L55.5154 38.1691L56.0344 39.5702L55.5154 40.9713L54.9963 39.5702ZM54.9251 42.5645L54.406 41.1634L53.8869 42.5645L54.406 43.9656L54.9251 42.5645ZM33.8474 45.5588L33.3283 44.1578L32.8092 45.5588L33.3283 46.9599L33.8474 45.5588ZM31.1096 38.1691L30.5905 39.5702L31.1096 40.9712L31.6287 39.5702L31.1096 38.1691ZM32.219 41.1634L31.6999 42.5645L32.219 43.9656L32.738 42.5645L32.219 41.1634ZM28.3718 39.5702L28.8909 38.1691L29.41 39.5702L28.8909 40.9712L28.3718 39.5702ZM28.3006 42.5645L27.7816 41.1634L27.2625 42.5645L27.7816 43.9656L28.3006 42.5645ZM57.1438 42.5645L56.6247 41.1634L56.1056 42.5645L56.6247 43.9656L57.1438 42.5645ZM31.6287 45.5588L31.1096 44.1578L30.5905 45.5588L31.1096 46.9599L31.6287 45.5588ZM30.0003 41.1634L29.4812 42.5645L30.0003 43.9656L30.5193 42.5645L30.0003 41.1634ZM28.8909 44.1578L28.3718 45.5588L28.8909 46.9599L29.41 45.5588L28.8909 44.1578Z" fill="#2C2C2C"/>
<path d="M139.881 26.6453C125.298 13.0534 116.191 10.5928 98.8677 14.8942C98.6178 14.9563 98.4375 15.1825 98.4375 15.44V84.8973C98.4375 85.1451 98.6048 85.3653 98.8421 85.4366C116.86 90.845 126.302 89.8873 139.935 73.0972C140.016 72.9972 140.062 72.8693 140.062 72.7405V27.0586C140.062 26.9029 139.995 26.7514 139.881 26.6453Z" fill="#F5F5F5"/>
<path fill-rule="evenodd" clip-rule="evenodd" d="M140.062 68.2519C127.715 81.2928 117.569 84.034 98.4375 79.7854V84.8973C98.4375 85.1451 98.6048 85.3654 98.8421 85.4366C116.86 90.845 126.302 89.8873 139.935 73.0972C140.016 72.9972 140.062 72.8693 140.062 72.7405V68.2519Z" fill="#ECECEC"/>
</svg>
