<svg width="325" height="281" viewBox="0 0 325 281" fill="none" xmlns="http://www.w3.org/2000/svg">
<rect width="325" height="118" rx="59" fill="#ECECEC"/>
<rect x="9" y="4" width="307" height="97" rx="48.5" fill="#F2F2F2"/>
<path d="M85.3824 6.09873C134.539 4.7575 149.882 17.0987 154.382 42.0987C158.883 67.0987 136.616 88.1871 53.3824 93.0987C23.0202 90.5408 13.8826 67.298 23.8824 42.0987C36.3826 10.5987 36.2261 7.43995 85.3824 6.09873Z" fill="#ECECEC"/>
<path d="M240.549 6.09873C191.392 4.7575 176.049 17.0987 171.549 42.0987C167.048 67.0987 189.315 88.1871 272.549 93.0987C302.911 90.5408 312.048 67.298 302.049 42.0987C289.548 10.5987 289.705 7.43995 240.549 6.09873Z" fill="#ECECEC"/>
<path d="M89 101H236V114C236 116.209 234.209 118 232 118H93C90.7909 118 89 116.209 89 114V101Z" fill="#D3D3D3"/>
<rect x="131" y="101" width="63" height="17" fill="#E3E3E3"/>
<path d="M89 97.8461C89 96.1424 90.0792 94.6256 91.6889 94.0671L130.051 80.758C151.069 73.4659 173.931 73.4659 194.95 80.758L233.311 94.0671C234.921 94.6256 236 96.1424 236 97.8461V101H89V97.8461Z" fill="#E3E3E3"/>
<path d="M0 118H325V199.5C325 244.511 288.511 281 243.5 281H81.5C36.4888 281 0 244.511 0 199.5V118Z" fill="#F2F2F2"/>
<path d="M89 118H236V124.5C236 128.09 233.09 131 229.5 131H95.5C91.9102 131 89 128.09 89 124.5V118Z" fill="#ECECEC"/>
<circle cx="163" cy="158" r="3" fill="#86EA83"/>
</svg>
