<svg width="325" height="260" viewBox="0 0 325 260" fill="none" xmlns="http://www.w3.org/2000/svg">
<path d="M325 97H0V81.5C0 36.4888 36.4888 0 81.5 0H243.5C288.511 0 325 36.4888 325 81.5V97Z" fill="#F2F2F2"/>
<path d="M89 97H236V90.5C236 86.9101 233.09 84 229.5 84H95.5C91.9102 84 89 86.9101 89 90.5V97Z" fill="#ECECEC"/>
<path d="M0 97H325V178.5C325 223.511 288.511 260 243.5 260H81.5C36.4888 260 0 223.511 0 178.5V97Z" fill="#F2F2F2"/>
<path d="M89 97H236V103.5C236 107.09 233.09 110 229.5 110H95.5C91.9102 110 89 107.09 89 103.5V97Z" fill="#ECECEC"/>
<circle cx="163" cy="137" r="3" fill="#86EA83"/>
</svg>
